<svg width="420" height="120" viewBox="0 0 420 120" fill="none" xmlns="http://www.w3.org/2000/svg">
  <rect width="420" height="120" rx="12" fill="#F4F4F2"/>
  <path d="M348 24H392V88" stroke="#07A63A" stroke-width="16" stroke-linecap="square"/>
  <g fill="#4A4A4A">
    <path d="M30.36 79V41.2H97.56V49.12H39.84V56.68H91.8V64.54H39.84V71.08H98.34V79H30.36Z"/>
    <path d="M117.391 79.9C108.191 79.9 101.071 78.03 96.0313 74.29C91.0113 70.53 88.5013 65.13 88.5013 58.09C88.5013 51.05 91.0113 45.66 96.0313 41.92C101.071 38.16 108.191 36.28 117.391 36.28C124.291 36.28 130.131 37.4 134.911 39.64C139.711 41.86 143.101 45.03 145.081 49.15L136.171 52.66C134.651 49.98 132.241 47.89 128.941 46.39C125.641 44.89 121.831 44.14 117.511 44.14C110.931 44.14 105.891 45.33 102.391 47.71C98.9113 50.09 97.1713 53.55 97.1713 58.09C97.1713 62.61 98.9113 66.07 102.391 68.47C105.891 70.85 110.931 72.04 117.511 72.04C121.831 72.04 125.641 71.29 128.941 69.79C132.241 68.29 134.651 66.2 136.171 63.52L145.081 67.03C143.101 71.15 139.711 74.33 134.911 76.57C130.131 78.79 124.291 79.9 117.391 79.9Z"/>
    <path d="M149.964 79V41.2H184.944C190.164 41.2 194.194 42.35 197.034 44.65C199.894 46.93 201.324 50.13 201.324 54.25C201.324 58.45 199.864 61.69 196.944 63.97C194.044 66.25 189.994 67.39 184.794 67.39H159.444V79H149.964ZM159.444 59.65H183.654C186.534 59.65 188.724 59.17 190.224 58.21C191.744 57.23 192.504 55.91 192.504 54.25C192.504 52.59 191.744 51.29 190.224 50.35C188.724 49.39 186.534 48.91 183.654 48.91H159.444V59.65Z"/>
    <path d="M206.066 79V41.2H215.546V71.02H253.796V79H206.066Z"/>
    <path d="M251.842 79L276.112 41.2H288.922L313.192 79H302.872L296.932 69.1H267.922L261.922 79H251.842ZM271.642 61.58H293.212L282.412 43.82L271.642 61.58Z"/>
    <path d="M316.5 79V41.2H325.98V79H316.5Z"/>
  </g>
</svg>
